<svg width="16" height="16" viewBox="0 0 16 16" fill="none" xmlns="http://www.w3.org/2000/svg">
<g clip-path="url(#clip0_201_135)">
<path d="M15.0266 4.27996C14.9474 3.96357 14.7862 3.67367 14.5591 3.43956C14.332 3.20545 14.0471 3.03542 13.7333 2.94663C12.5866 2.66663 7.99997 2.66663 7.99997 2.66663C7.99997 2.66663 3.41331 2.66663 2.26664 2.97329C1.95281 3.06208 1.66796 3.23212 1.44087 3.46623C1.21378 3.70034 1.0525 3.99023 0.973308 4.30663C0.763451 5.47033 0.660798 6.65083 0.666641 7.83329C0.65916 9.02466 0.761819 10.2142 0.973308 11.3866C1.06061 11.6932 1.22551 11.9721 1.45207 12.1963C1.67863 12.4205 1.95919 12.5825 2.26664 12.6666C3.41331 12.9733 7.99997 12.9733 7.99997 12.9733C7.99997 12.9733 12.5866 12.9733 13.7333 12.6666C14.0471 12.5778 14.332 12.4078 14.5591 12.1737C14.7862 11.9396 14.9474 11.6497 15.0266 11.3333C15.2349 10.1784 15.3375 9.00685 15.3333 7.83329C15.3408 6.64193 15.2381 5.45242 15.0266 4.27996V4.27996Z" stroke="black" stroke-width="2" stroke-linecap="round" stroke-linejoin="round"/>
<path d="M6.5 10.0133L10.3333 7.83332L6.5 5.65332V10.0133Z" fill="black"/>
</g>
<defs>
<clipPath id="clip0_201_135">
<rect width="16" height="16" fill="white"/>
</clipPath>
</defs>
</svg>
